{"title":"The Specials - A Message To You Rudy - (Jimmy fallon-13-4-2010)[","uid":5537339,"size":45866495,"categoryP":"video","categoryS":"music_videos","magnet":"?xt=urn:btih:cee787f79f87192748283e528d53858ce73f7407&amp;dn=The+Specials+-+A+Message+To+You+Rudy+-+%28Jimmy+fallon-13-4-2010%29%5B&amp;tr=udp%3A%2F%2Ftracker.openbittorrent.com%3A80&amp;tr=udp%3A%2F%2Fopen.demonii.com%3A1337&amp;tr=udp%3A%2F%2Ftracker.coppersurfer.tk%3A6969&amp;tr=udp%3A%2F%2Fexodus.desync.com%3A6969","seeders":0,"leechers":0,"uploader":"seanprince","files":-1,"time":1273113190,"description":"The Specials - A Message To You Rudy - (Jimmy fallon-13-4-2010)[hdtv-Divx]\n\nRecorded From The Jimmy Fallon Show On The 4th April 2010. This was the specials first performance On US TV for Thirty years.\n\n\n\n\n\n\nGeneral\n\nComplete name : A Message To You Rudy.divx\nFormat : AVI\nFormat/Info : Audio Video Interleave\nFile size : 43.7 MiB\nDuration : 4mn 3s\nOverall bit rate : 1 504 Kbps\n\nVideo\nID : 0\nFormat : MPEG-4 Visual\nFormat settings, BVOP : Yes\nFormat settings, QPel : No\nFormat settings, GMC : No warppoints\nFormat settings, Matrix : Default (H.263)\nMuxing mode : Packed bitstream\nCodec ID : DX50\nCodec ID/Hint : DivX 5\nDuration : 4mn 3s\nBit rate : 1 301 Kbps\nWidth : 624 pixels\nHeight : 352 pixels\nDisplay aspect ratio : 16:9\nFrame rate : 29.970 fps\nResolution : 8 bits\nColorimetry : 4:2:0\nScan type : Progressive\nBits/(Pixel*Frame) : 0.198\nStream size : 37.8 MiB (86%)\nTitle : Video\nWriting library : DivX 6.8.2 (UTC 2008-05-17)\n\nAudio\nID : 1\nFormat : AC-3\nFormat/Info : Audio Coding 3\nCodec ID : 2000\nDuration : 4mn 3s\nBit rate mode : Constant\nBit rate : 192 Kbps\nChannel(s) : 2 channels\nChannel positions : Front: L R\nSampling rate : 48.0 KHz\nStream size : 5.58 MiB (13%)\nAlignment : Split accross interleaves\nInterleave, duration : 33 ms (1.00 video frame)\nInterleave, preload duration : 500 ms ","torrent":{"xt":"urn:btih:cee787f79f87192748283e528d53858ce73f7407","amp;dn":"The+Specials+-+A+Message+To+You+Rudy+-+%28Jimmy+fallon-13-4-2010%29%5B","amp;tr":["udp%3A%2F%2Ftracker.openbittorrent.com%3A80","udp%3A%2F%2Fopen.demonii.com%3A1337","udp%3A%2F%2Ftracker.coppersurfer.tk%3A6969","udp%3A%2F%2Fexodus.desync.com%3A6969"],"infoHash":"cee787f79f87192748283e528d53858ce73f7407","infoHashBuffer":{"type":"Buffer","data":[206,231,135,247,159,135,25,39,72,40,62,82,141,83,133,140,231,63,116,7]},"announce":[],"urlList":[]}}